<?xml version="1.0" encoding="UTF-8"?><svg id="_레이어_2" xmlns="http://www.w3.org/2000/svg" xmlns:xlink="http://www.w3.org/1999/xlink" viewBox="0 0 139.7 173.25"><defs><style>.cls-1{fill:#9595f9;}.cls-1,.cls-2,.cls-3,.cls-4{stroke-width:0px;}.cls-2{fill:url(#_무제_그라디언트_20);}.cls-3{fill:url(#_무제_그라디언트_85);}.cls-4{fill:#fff;}</style><linearGradient id="_무제_그라디언트_20" x1="58.64" y1="0" x2="58.64" y2="173.25" gradientUnits="userSpaceOnUse"><stop offset="0" stop-color="#8284bf"/><stop offset="1" stop-color="#5c64ac"/></linearGradient><linearGradient id="_무제_그라디언트_85" x1="70.91" y1="58.27" x2="69.12" y2="177.22" gradientUnits="userSpaceOnUse"><stop offset="0" stop-color="#8b89fa"/><stop offset=".27" stop-color="#7c7af8"/><stop offset=".6" stop-color="#7370f7"/><stop offset="1" stop-color="#706df7"/></linearGradient></defs><g id="_레이어_1-2"><path class="cls-2" d="M58.64,32.87v2.6c0-.8,0-1.67,0-2.6Z"/><path class="cls-1" d="M125.98,22.96c-6.71,0-12.25,4.91-13.28,11.32-.08.48-.13.97-.15,1.46l-.03,11.98v-30.01h-.06c.04-.41.06-.83.06-1.25,0-7.44-6.03-13.47-13.47-13.47s-13.33,5.9-13.46,13.23v16s-.08-17.51-.08-17.51c.04-.41.06-.83.06-1.25,0-7.44-6.03-13.47-13.47-13.47s-13.47,6.03-13.47,13.47c0,.42.03.84.06,1.25h-.06v18.15c0,.92,0,1.8,0,2.6v-2.6c-.05-7.65-.91-18.67-12.96-18.85-3.13-.05-6.27.9-8.79,2.79-2.32,1.74-3.98,4.24-4.72,7.04-1.42,5.35-.4,11.83-.37,17.32,0,7.55.08,15.11.13,22.67l.03,5.69c0,1.07.01,2.14.02,3.21,0,.01,0,.03,0,.04.01,1.81-1.86,3.02-3.51,2.26-5.36-2.47-15.19-5.52-20.82.92-10.29,11.76,4.04,22.24,11.79,29.01,2.23,1.95,4.46,4.06,6.31,6.38.07.09.2.11.29.05l113.25-75.94c.07-.05.11-.13.1-.21-.6-6.89-6.36-12.29-13.4-12.29Z"/><path class="cls-3" d="M139.38,37.68c.04-.41.06-.83.06-1.25,0-.35-.03-.7-.05-1.04L26.06,111.38c-.11.07-.13.22-.05.32,3.04,3.93,4.95,8.47,3.93,13.85-1.87,9.91-12.27,15.6-21.6,16.02-4.04.18-11.78-.09-6.63,6.19,10.81,13.19,27.42,19.9,43.81,22.91,15.02,2.76,30.98,3.47,46.14,1.38,12.96-1.79,27.27-6.53,36.02-16.78,10.3-12.07,11.97-27.6,12.01-42.81.07-24.92-.24-49.84-.24-74.76h-.06Z"/><rect class="cls-4" x="66.24" y="67.76" width="17.46" height="28.09" rx="8.73" ry="8.73"/><rect class="cls-4" x="96.97" y="67.76" width="17.46" height="28.09" rx="8.73" ry="8.73"/></g></svg>